<?xml version="1.0" encoding="UTF-8"?>
<!DOCTYPE svg PUBLIC "-//W3C//DTD SVG 1.1//EN" "http://www.w3.org/Graphics/SVG/1.1/DTD/svg11.dtd">
<svg xmlns="http://www.w3.org/2000/svg" version="1.1" width="226px" height="320px" style="shape-rendering:geometricPrecision; text-rendering:geometricPrecision; image-rendering:optimizeQuality; fill-rule:evenodd; clip-rule:evenodd" xmlns:xlink="http://www.w3.org/1999/xlink">
<g><path style="opacity:0.985" fill="#000000" d="M 110.5,-0.5 C 111.833,-0.5 113.167,-0.5 114.5,-0.5C 142.517,17.6004 170.684,35.6004 199,53.5C 199.667,93.5 199.667,133.5 199,173.5C 191.316,180.685 183.482,187.685 175.5,194.5C 175.82,157.437 175.487,120.103 174.5,82.5C 159.5,92.5 144.5,102.5 129.5,112.5C 128.667,127.155 128.167,141.822 128,156.5C 122.947,160.395 117.781,164.062 112.5,167.5C 107.219,164.062 102.053,160.395 97,156.5C 96.8328,141.822 96.3328,127.155 95.5,112.5C 80.5,102.5 65.5,92.5 50.5,82.5C 49.1709,119.733 49.1709,156.9 50.5,194C 41.8771,188.073 33.7105,181.24 26,173.5C 25.3333,133.5 25.3333,93.5 26,53.5C 54.316,35.6004 82.4827,17.6004 110.5,-0.5 Z"/></g>
<g><path style="opacity:0.976" fill="#000000" d="M 61.5,119.5 C 69.7085,124.196 77.5418,129.529 85,135.5C 85.3333,158.833 85.6667,182.167 86,205.5C 88.5296,214.25 90.3629,222.917 91.5,231.5C 81.815,222.647 71.9817,213.981 62,205.5C 61.5,176.835 61.3334,148.169 61.5,119.5 Z"/></g>
<g><path style="opacity:0.976" fill="#000000" d="M 161.5,119.5 C 162.833,133.484 163.499,147.817 163.5,162.5C 163.333,176.833 163.167,191.167 163,205.5C 153.018,213.981 143.185,222.647 133.5,231.5C 134.637,222.917 136.47,214.25 139,205.5C 139.333,182.167 139.667,158.833 140,135.5C 147.35,130.303 154.517,124.97 161.5,119.5 Z"/></g>
<g><path style="opacity:0.922" fill="#000000" d="M 225.5,271.5 C 225.5,274.5 225.5,277.5 225.5,280.5C 222.52,280.62 219.687,281.287 217,282.5C 216.774,279.905 216.274,277.405 215.5,275C 209.509,274.501 203.509,274.334 197.5,274.5C 197.183,277.572 197.516,280.572 198.5,283.5C 207.683,286.448 216.683,289.782 225.5,293.5C 225.5,300.5 225.5,307.5 225.5,314.5C 223.5,315.833 221.833,317.5 220.5,319.5C 211.5,319.5 202.5,319.5 193.5,319.5C 191.193,318.023 189.36,316.023 188,313.5C 187.173,309.459 187.34,305.459 188.5,301.5C 191.399,300.358 194.399,299.692 197.5,299.5C 197.335,303.182 197.501,306.848 198,310.5C 204,311.833 210,311.833 216,310.5C 216.667,307.167 216.667,303.833 216,300.5C 215.5,299.333 214.667,298.5 213.5,298C 204.431,295.65 195.931,292.15 188,287.5C 183.981,271.363 190.148,264.03 206.5,265.5C 212.057,265.157 217.39,265.991 222.5,268C 223.636,269.145 224.636,270.312 225.5,271.5 Z"/></g>
<g><path style="opacity:0.921" fill="#000000" d="M -0.5,266.5 C 2.77659,266.216 5.94325,266.549 9,267.5C 13.0608,276.622 17.3942,285.622 22,294.5C 26.4844,285.531 30.9844,276.531 35.5,267.5C 38.7683,266.513 42.1016,266.18 45.5,266.5C 45.819,284.243 45.4857,301.91 44.5,319.5C 41.5,319.5 38.5,319.5 35.5,319.5C 34.6954,310.911 34.1954,302.244 34,293.5C 30.2529,300.663 26.2529,307.663 22,314.5C 18.2529,307.337 14.2529,300.337 10,293.5C 9.50025,302.16 9.33358,310.827 9.5,319.5C 6.16667,319.5 2.83333,319.5 -0.5,319.5C -0.5,301.833 -0.5,284.167 -0.5,266.5 Z"/></g>
<g><path style="opacity:0.889" fill="#000000" d="M 70.5,319.5 C 67.5,319.5 64.5,319.5 61.5,319.5C 61.5,301.833 61.5,284.167 61.5,266.5C 64.7766,266.216 67.9433,266.549 71,267.5C 71.8182,284.907 71.6515,302.24 70.5,319.5 Z"/></g>
<g><path style="opacity:0.943" fill="#000000" d="M 122.5,319.5 C 110.833,319.5 99.1667,319.5 87.5,319.5C 87.5,301.833 87.5,284.167 87.5,266.5C 90.5,266.5 93.5,266.5 96.5,266.5C 96.5,280.833 96.5,295.167 96.5,309.5C 105.167,309.5 113.833,309.5 122.5,309.5C 122.5,312.833 122.5,316.167 122.5,319.5 Z"/></g>
<g><path style="opacity:0.882" fill="#000000" d="M 172.5,319.5 C 160.833,319.5 149.167,319.5 137.5,319.5C 137.5,301.833 137.5,284.167 137.5,266.5C 140.777,266.216 143.943,266.549 147,267.5C 147.5,281.496 147.667,295.496 147.5,309.5C 155.84,309.334 164.173,309.5 172.5,310C 173.792,313.165 173.792,316.332 172.5,319.5 Z"/></g>
</svg>
